<svg width="32" height="32" viewBox="0 0 32 32" fill="none" xmlns="http://www.w3.org/2000/svg">
<path d="M15.775 21.3214C15.8017 21.3556 15.8358 21.3832 15.8748 21.4022C15.9138 21.4212 15.9566 21.4311 16 21.4311C16.0433 21.4311 16.0861 21.4212 16.1251 21.4022C16.1641 21.3832 16.1982 21.3556 16.225 21.3214L20.225 16.2607C20.3714 16.075 20.2393 15.8 20 15.8H17.3535V3.71429C17.3535 3.55715 17.225 3.42857 17.0678 3.42857H14.925C14.7678 3.42857 14.6393 3.55715 14.6393 3.71429V15.7964H12C11.7607 15.7964 11.6285 16.0714 11.775 16.2571L15.775 21.3214ZM29.0714 20.0714H26.9285C26.7714 20.0714 26.6428 20.2 26.6428 20.3571V25.8571H5.35711V20.3571C5.35711 20.2 5.22854 20.0714 5.07139 20.0714H2.92854C2.77139 20.0714 2.64282 20.2 2.64282 20.3571V27.4286C2.64282 28.0607 3.15354 28.5714 3.78568 28.5714H28.2143C28.8464 28.5714 29.3571 28.0607 29.3571 27.4286V20.3571C29.3571 20.2 29.2285 20.0714 29.0714 20.0714Z" fill="black"/>
</svg>
