<svg width="73" height="73" viewBox="0 0 73 73" fill="none" xmlns="http://www.w3.org/2000/svg">
<g clip-path="url(#clip0_1_79)">
<path d="M38.2924 23.4643V5.86607H13.6875V67.1339H59.3125V26.8862H41.7143C40.8067 26.8862 39.9364 26.5256 39.2947 25.8839C38.6529 25.2422 38.2924 24.3718 38.2924 23.4643ZM48.558 42.692V46.6027C48.558 46.9612 48.2647 47.2545 47.9062 47.2545H39.1071V56.0536C39.1071 56.4121 38.8138 56.7054 38.4554 56.7054H34.5446C34.1862 56.7054 33.8929 56.4121 33.8929 56.0536V47.2545H25.0938C24.7353 47.2545 24.442 46.9612 24.442 46.6027V42.692C24.442 42.3335 24.7353 42.0402 25.0938 42.0402H33.8929V33.2411C33.8929 32.8826 34.1862 32.5893 34.5446 32.5893H38.4554C38.8138 32.5893 39.1071 32.8826 39.1071 33.2411V42.0402H47.9062C48.2647 42.0402 48.558 42.3335 48.558 42.692Z" fill="#E6E6E6"/>
<path d="M64.4127 18.2989L46.8797 0.765848C46.3908 0.277009 45.7309 0 45.0384 0H10.4286C8.98648 0 7.82141 1.16507 7.82141 2.60714V70.3929C7.82141 71.8349 8.98648 73 10.4286 73H62.5714C64.0135 73 65.1786 71.8349 65.1786 70.3929V20.1483C65.1786 19.4558 64.9016 18.7877 64.4127 18.2989ZM43.8326 6.01272L59.1658 21.346H43.8326V6.01272ZM59.3125 67.1339H13.6875V5.86607H38.2924V23.4643C38.2924 24.3718 38.6529 25.2422 39.2946 25.8839C39.9364 26.5256 40.8067 26.8862 41.7143 26.8862H59.3125V67.1339Z" fill="#333333"/>
<path d="M39.1072 33.2411C39.1072 32.8826 38.8139 32.5893 38.4554 32.5893H34.5447C34.1862 32.5893 33.8929 32.8826 33.8929 33.2411V42.0402H25.0938C24.7353 42.0402 24.442 42.3335 24.442 42.692V46.6027C24.442 46.9612 24.7353 47.2545 25.0938 47.2545H33.8929V56.0536C33.8929 56.4121 34.1862 56.7054 34.5447 56.7054H38.4554C38.8139 56.7054 39.1072 56.4121 39.1072 56.0536V47.2545H47.9063C48.2648 47.2545 48.5581 46.9612 48.5581 46.6027V42.692C48.5581 42.3335 48.2648 42.0402 47.9063 42.0402H39.1072V33.2411Z" fill="#333333"/>
</g>
<defs>
<clipPath id="clip0_1_79">
<rect width="73" height="73" fill="white"/>
</clipPath>
</defs>
</svg>
